<?xml version="1.0" encoding="UTF-8" standalone="no"?>
<svg
   xmlns:dc="http://purl.org/dc/elements/1.1/"
   xmlns:cc="http://creativecommons.org/ns#"
   xmlns:rdf="http://www.w3.org/1999/02/22-rdf-syntax-ns#"
   xmlns:svg="http://www.w3.org/2000/svg"
   xmlns="http://www.w3.org/2000/svg"
   xmlns:sodipodi="http://sodipodi.sourceforge.net/DTD/sodipodi-0.dtd"
   xmlns:inkscape="http://www.inkscape.org/namespaces/inkscape"
   viewBox="0 0 384.91116 384.54104"
   version="1.1"
   id="svg3831"
   sodipodi:docname="extension-cord-147580.svg"
   inkscape:version="0.92.2 (5c3e80d, 2017-08-06)"
   width="384.91116"
   height="384.54105"
   inkscape:export-filename="C:\Users\tommi\Pictures\extension-cord.png"
   inkscape:export-xdpi="15.962125"
   inkscape:export-ydpi="15.962125">
  <metadata
     id="metadata3837">
    <rdf:RDF>
      <cc:Work
         rdf:about="">
        <dc:format>image/svg+xml</dc:format>
        <dc:type
           rdf:resource="http://purl.org/dc/dcmitype/StillImage" />
        <dc:title></dc:title>
      </cc:Work>
    </rdf:RDF>
  </metadata>
  <defs
     id="defs3835" />
  <sodipodi:namedview
     pagecolor="#ffffff"
     bordercolor="#666666"
     borderopacity="1"
     objecttolerance="10"
     gridtolerance="10"
     guidetolerance="10"
     inkscape:pageopacity="0.84705882"
     inkscape:pageshadow="2"
     inkscape:window-width="1842"
     inkscape:window-height="1051"
     id="namedview3833"
     showgrid="false"
     inkscape:zoom="1.6128706"
     inkscape:cx="173.01824"
     inkscape:cy="194.78584"
     inkscape:window-x="69"
     inkscape:window-y="-9"
     inkscape:window-maximized="1"
     inkscape:current-layer="svg3831"
     fit-margin-top="17.5"
     fit-margin-bottom="17.5"
     fit-margin-left="0"
     fit-margin-right="0"
     inkscape:object-nodes="false"
     inkscape:pagecheckerboard="true"
     borderlayer="false" />
  <g
     id="g72">
    <path
       d="m 196.19697,77.213239 16.67517,-44.32084 74.59943,4.38821"
       id="path3769"
       inkscape:connector-curvature="0"
       style="fill:none;stroke:#000000;stroke-width:30.78492546;stroke-linecap:round;stroke-linejoin:round" />
    <path
       d="m 150.54681,235.18852 -18.43045,60.11836 c -3.68094,20.4614 1.6201,28.94767 8.33759,35.54444 l 51.78078,22.81865 c 19.12565,2.42404 31.35716,0.3449 42.56556,-1.75528 l 127.69989,-29.40095 c 11.44308,-4.08553 14.81943,-8.93956 1.75528,-15.35871 l -43.00438,-15.35871"
       id="path3771"
       inkscape:connector-curvature="0"
       style="fill:none;stroke:#313940;stroke-width:24.62777901;stroke-linecap:square" />
    <path
       d="M 312.73687,194.61758 C 301.1412,257.34659 248.78638,301.59933 195.79961,293.4602 142.81284,285.32106 109.25811,227.87103 120.8536,165.14297 132.4491,102.4149 184.8041,58.161209 237.79087,66.300349 c 52.98676,8.13913 86.5415,65.589161 74.946,128.317231 z"
       id="path3773"
       inkscape:connector-curvature="0"
       style="fill:#d9d6d2;stroke:#000000;stroke-width:6.15700293;stroke-linecap:square" />
    <path
       d="m 246.18711,78.531309 c -58.27548,36.823131 -83.40799,88.206081 -73.8102,137.625591 4.6736,24.06921 13.88151,42.67326 32.12228,65.9894"
       id="path3775"
       inkscape:connector-curvature="0"
       style="fill:none;stroke:#000000;stroke-width:6.15698481;stroke-linecap:square" />
    <path
       d="m 234.77457,81.167449 c -58.27548,36.823121 -78.13973,82.499801 -68.54436,131.919321 4.67344,24.0692 4.2277,69.00246 50.11391,75.64344"
       id="path3777"
       inkscape:connector-curvature="0"
       style="fill:none;stroke:#000000;stroke-width:6.15698481;stroke-linecap:square" />
    <path
       d="m 259.36779,79.849379 c -83.72947,6.54405 -108.41913,82.941841 -98.82295,132.361351 4.67343,24.06921 13.8815,42.67326 32.12228,65.9894"
       id="path3779"
       inkscape:connector-curvature="0"
       style="fill:none;stroke:#000000;stroke-width:6.15698481;stroke-linecap:square" />
    <path
       d="m 243.13305,77.213239 c -71.00207,34.190211 -97.00659,81.181741 -87.41041,130.601251 4.67343,24.06921 13.8815,42.67326 32.12228,65.9894"
       id="path3781"
       inkscape:connector-curvature="0"
       style="fill:none;stroke:#000000;stroke-width:6.15698481;stroke-linecap:square" />
    <path
       sodipodi:nodetypes="ccccc"
       d="m 261.13593,77.213239 c -7.94152,0.25435 -20.46783,-4.45539 -43.88202,3.51057 -41.1615,14.00367 -81.75505,76.901511 -71.28204,128.073081 10.12921,43.28336 29.15536,74.56574 16.02176,113.93168 -26.75072,63.32231 -80.122637,-23.1455 -113.649465,-132.12511"
       id="path3783"
       inkscape:connector-curvature="0"
       style="fill:none;stroke:#000000;stroke-width:6.15698481;stroke-linecap:square" />
    <path
       d="M 374.13957,211.63947 C 362.5439,278.4564 310.18908,325.59336 257.20231,316.92427 204.21554,308.25519 170.66081,247.06165 182.2563,180.24573 193.8518,113.42982 246.2068,66.291849 299.19357,74.960929 c 52.98676,8.66909 86.5415,69.862631 74.946,136.678541 z"
       id="path3785"
       inkscape:connector-curvature="0"
       style="fill:#d9d6d2;stroke:#000000;stroke-width:6.15705729;stroke-linecap:square" />
    <g
       transform="translate(83.077175,-28.579165)"
       id="g3914">
      <g
         id="g3900">
        <g
           transform="rotate(91.729286,63.320868,90.347234)"
           id="g3887">
          <path
             inkscape:connector-curvature="0"
             id="path3787"
             d="m 183.87452,170.46955 c 0,0 -5.71913,11.92771 -15.72841,14.84755 -10.00928,2.91985 -22.81222,0.17931 -22.81222,0.17931 l 12.13427,30.56471 c 0,0 2.99426,-7.70708 11.45111,-10.8395 8.45686,-3.13242 27.17471,-4.0889 27.17471,-4.0889 l -12.21946,-30.66357 z"
             style="stroke-width:0.80369997" />
          <path
             style="fill:#313940;stroke-width:0.80369997"
             inkscape:connector-curvature="0"
             id="path3789"
             d="m 186.22936,169.44885 11.98318,31.08471 c 0.36671,0.95142 -0.10496,2.01262 -1.05558,2.37943 l -1.71711,0.66203 c -0.95158,0.36675 -2.01262,-0.10383 -2.37951,-1.05534 l -11.98317,-31.0847 c -0.36672,-0.95142 0.10495,-2.01263 1.05525,-2.37943 l 1.71743,-0.66205 c 0.95142,-0.36676 2.01263,0.10383 2.37951,1.05534 z" />
          <path
             style="fill:#313940;stroke-width:0.80369997"
             inkscape:connector-curvature="0"
             id="path3791"
             d="m 180.16143,176.26423 9.72075,25.21609 c 0.2976,0.77177 -0.084,1.63263 -0.85602,1.93016 l -1.39337,0.53703 c -0.77186,0.29754 -1.63256,-0.0843 -1.93033,-0.8561 l -9.72075,-25.21608 c -0.29744,-0.77183 0.084,-1.63272 0.85602,-1.93025 l 1.39321,-0.53704 c 0.77186,-0.29754 1.63272,0.0843 1.93033,0.8561 z" />
          <path
             style="fill:#313940;stroke-width:0.80369997"
             inkscape:connector-curvature="0"
             id="path3793"
             d="m 173.86047,181.625 7.58015,19.6632 c 0.23205,0.60182 -0.0662,1.27314 -0.66753,1.50513 l -1.08641,0.41879 c -0.60198,0.23197 -1.27324,-0.0657 -1.50528,-0.66758 l -7.57984,-19.66318 c -0.23203,-0.60183 0.0662,-1.27315 0.66755,-1.50514 l 1.08641,-0.41881 c 0.60182,-0.232 1.27307,0.0657 1.50495,0.66759 z" />
          <path
             style="fill:#313940;stroke-width:0.80369997"
             inkscape:connector-curvature="0"
             id="path3795"
             d="m 167.7759,183.92486 7.58,19.66324 c 0.23203,0.60183 -0.0662,1.27308 -0.66755,1.50508 l -1.08641,0.41882 c -0.60182,0.23199 -1.27307,-0.0657 -1.50511,-0.66759 l -7.57999,-19.66319 c -0.23205,-0.60184 0.0662,-1.27311 0.66754,-1.5051 l 1.08641,-0.41881 c 0.60197,-0.23199 1.27307,0.0657 1.50511,0.66755 z" />
          <path
             style="fill:#313940;stroke-width:0.80369997"
             inkscape:connector-curvature="0"
             id="path3797"
             d="m 160.38128,184.53318 8.89053,23.06289 c 0.27193,0.70591 -0.0775,1.49322 -0.78299,1.76538 l -1.27437,0.49118 c -0.70581,0.27211 -1.49316,-0.077 -1.76509,-0.78302 l -8.89086,-23.06287 c -0.27208,-0.70592 0.0759,-1.49322 0.783,-1.7654 l 1.27452,-0.49115 c 0.70565,-0.2721 1.49317,0.077 1.76526,0.78299 z" />
          <path
             style="fill:#313940;stroke-width:0.80369997"
             inkscape:connector-curvature="0"
             id="path3799"
             d="m 153.41429,184.82363 10.33237,26.80259 c 0.31633,0.82034 -0.0904,1.73543 -0.90995,2.05169 l -1.48074,0.57084 c -0.82041,0.31618 -1.73551,-0.0896 -2.05168,-0.91003 l -10.33237,-26.8026 c -0.31633,-0.82041 0.0904,-1.73542 0.90979,-2.05168 l 1.4809,-0.57085 c 0.82025,-0.3162 1.73535,0.0896 2.05152,0.91003 z" />
          <path
             inkscape:connector-curvature="0"
             id="path3801"
             d="m 94.133376,207.64871 29.618764,-11.18509 c 0.90649,-0.34234 1.912,0.11175 2.25421,1.01837 l 0.61798,1.63633 c 0.34249,0.90658 -0.11304,1.912 -1.01845,2.2543 l -29.617958,11.18509 c -0.906333,0.34239 -1.911842,-0.11174 -2.254379,-1.01837 L 93.1159,209.90293 c -0.34265,-0.90657 0.113032,-1.91192 1.018127,-2.2543 z"
             style="stroke-width:0.80369997" />
          <path
             inkscape:connector-curvature="0"
             id="path3803"
             d="m 101.62386,230.78724 28.48956,-10.76315 c 0.87202,-0.32943 1.83919,0.10738 2.16846,0.97938 l 0.59472,1.57397 c 0.32973,0.87201 -0.10657,1.83919 -0.97939,2.16862 l -28.48956,10.76315 c -0.87178,0.32948 -1.83903,-0.10738 -2.16863,-0.9793 l -0.59439,-1.57397 c -0.32973,-0.87201 0.10657,-1.83919 0.97923,-2.16862 z"
             style="stroke-width:0.80369997" />
          <path
             style="fill:#313940;stroke-width:0.80369997"
             inkscape:connector-curvature="0"
             id="path3805"
             d="m 144.54145,180.4515 15.68581,40.69134 c 0.53659,1.39217 0.20265,2.8082 -0.7486,3.17493 l -25.32137,9.76094 c -0.95126,0.36673 -2.14926,-0.45877 -2.68597,-1.85092 L 115.7855,191.53646 c -0.53659,-1.39217 -0.20265,-2.80821 0.74861,-3.17494 l 25.32137,-9.76094 c 0.95126,-0.36676 2.14942,0.45871 2.68613,1.85084 z" />
        </g>
      </g>
    </g>
    <path
       d="m 282.63979,182.97123 c -3.66851,13.35702 -15.18104,21.9091 -25.71388,19.10192 -10.53283,-2.80719 -16.09759,-15.91089 -12.42913,-29.26771 3.66846,-13.35682 15.18105,-21.90911 25.71388,-19.10192 10.53284,2.80718 16.09759,15.91089 12.42913,29.26771 z"
       id="path3807"
       inkscape:connector-curvature="0"
       style="fill:#d9d6d2;stroke:#000000;stroke-width:1.25381732;stroke-linecap:square" />
    <path
       d="m 349.78404,221.39702 c -13.27069,46.60657 -53.82459,76.14737 -90.57699,65.98217 -36.7524,-10.1652 -51.26883,-55.66426 -37.99813,-102.27083 13.27069,-46.60656 49.29976,-76.67217 86.05216,-66.50698 36.75239,10.1652 55.79365,56.18908 42.52296,102.79323 z"
       id="path3809"
       inkscape:connector-curvature="0"
       style="fill:#d9d6d2;stroke-width:0.80369997" />
    <path
       d="m 353.23995,224.81275 c -15.06375,54.37673 -57.18245,80.72363 -97.4004,68.82324 -43.60394,-12.9034 -56.1931,-64.54756 -43.6811,-111.36067 14.97534,-56.03316 56.14809,-83.456211 93.4462,-75.03102 38.73673,8.74988 62.70226,63.19413 47.63771,117.57327 z"
       id="path3811"
       inkscape:connector-curvature="0"
       style="fill:#d9d6d2;stroke:#000000;stroke-width:1.42383492" />
    <path
       d="m 326.60218,174.99048 c -3.66851,13.35703 -15.18104,21.90911 -25.71388,19.10193 -10.53283,-2.80719 -16.09759,-15.91089 -12.42913,-29.26771 3.66846,-13.35682 15.18105,-21.90911 25.71388,-19.10192 10.53284,2.80718 16.09759,15.91088 12.42913,29.2677 z"
       id="path3813"
       inkscape:connector-curvature="0"
       style="fill:#d9d6d2;stroke:#000000;stroke-width:1.25381732;stroke-linecap:square" />
    <path
       d="m 307.18794,145.60811 c 0.0209,0.0128 0.0474,0.0134 0.0699,0.0261 6.69731,4.28291 9.81479,14.35006 7.06838,24.59723 -3.21488,11.99683 -13.26346,19.68021 -22.44895,17.17186 l -0.0921,-0.0272 c 2.31916,3.33415 5.52311,5.7684 9.40892,6.80405 10.53329,2.80716 22.06156,-5.74815 25.72965,-19.10476 3.66808,-13.35661 -1.90807,-26.4586 -12.44128,-29.26512 -2.41688,-0.64413 -4.88063,-0.67485 -7.29414,-0.20193 z"
       id="path3815"
       inkscape:connector-curvature="0"
       style="fill:#1a1f22;stroke-width:0.80369997" />
    <path
       d="m 324.93049,228.49279 c -3.66852,13.35703 -15.18105,21.90911 -25.71388,19.10192 -10.53284,-2.80718 -16.09759,-15.91088 -12.42913,-29.2677 3.66846,-13.35682 15.18104,-21.90911 25.71388,-19.10192 10.53283,2.80718 16.09759,15.91088 12.42913,29.2677 z"
       id="path3817"
       inkscape:connector-curvature="0"
       style="fill:#d9d6d2;stroke:#000000;stroke-width:1.25381732;stroke-linecap:square" />
    <path
       d="m 305.50017,199.11042 c 0.0209,0.0128 0.0474,0.0141 0.0691,0.0261 6.69723,4.28292 9.81478,14.35007 7.06846,24.59724 -3.21496,11.99683 -13.26346,19.68101 -22.44895,17.17186 l -0.0922,-0.0272 c 2.31931,3.33415 5.52326,5.7684 9.40891,6.80405 10.53329,2.80732 22.06157,-5.74807 25.73046,-19.10476 3.66889,-13.35669 -1.90807,-26.4578 -12.44128,-29.26513 -2.41697,-0.64412 -4.88063,-0.67483 -7.2943,-0.20193 z"
       id="path3819"
       inkscape:connector-curvature="0"
       style="fill:#1a1f22;stroke-width:0.80369997" />
    <path
       d="m 282.59961,183.15608 c -3.66852,13.35702 -15.18105,21.9091 -25.71388,19.10192 -10.53284,-2.80719 -16.09759,-15.91089 -12.42913,-29.26771 3.66846,-13.35682 15.18104,-21.90911 25.71388,-19.10192 10.53283,2.80719 16.09759,15.91089 12.42913,29.26771 z"
       id="path3821"
       inkscape:connector-curvature="0"
       style="fill:#d9d6d2;stroke:#000000;stroke-width:1.25381732;stroke-linecap:square" />
    <path
       d="m 263.14518,153.76567 c 0.0209,0.0128 0.0474,0.0133 0.0691,0.0261 6.69739,4.28292 9.81478,14.35006 7.06846,24.59804 -3.21488,11.99603 -13.26346,19.6802 -22.44895,17.17186 l -0.0921,-0.0273 c 2.31915,3.33407 5.5231,5.76832 9.40891,6.80405 10.5333,2.80716 22.06157,-5.74815 25.72965,-19.10556 3.66809,-13.35741 -1.90806,-26.45781 -12.44127,-29.26513 -2.41689,-0.64418 -4.88071,-0.67491 -7.29422,-0.20199 z"
       id="path3823"
       inkscape:connector-curvature="0"
       style="fill:#1a1f22;stroke-width:0.80369997" />
    <path
       d="m 281.66731,239.64815 c -3.66851,13.35702 -15.18104,21.90911 -25.71387,19.10192 -10.53284,-2.80719 -16.09759,-15.91089 -12.42913,-29.26771 3.66846,-13.35682 15.18104,-21.90911 25.71388,-19.10192 10.53283,2.80719 16.09758,15.91089 12.42912,29.26771 z"
       id="path3825"
       inkscape:connector-curvature="0"
       style="fill:#d9d6d2;stroke:#000000;stroke-width:1.25381732;stroke-linecap:square" />
    <path
       d="m 262.26111,210.26578 c 0.0209,0.0128 0.0474,0.0133 0.0699,0.0261 6.69739,4.28292 9.81479,14.35006 7.06838,24.59724 -3.21496,11.99683 -13.26346,19.6802 -22.44895,17.17185 l -0.0923,-0.0272 c 2.31932,3.33415 5.52319,5.76839 9.40892,6.80404 10.53329,2.80725 22.06156,-5.74814 25.72965,-19.10475 3.66808,-13.35661 -1.90807,-26.45861 -12.44128,-29.26513 -2.41689,-0.64412 -4.88063,-0.67485 -7.29422,-0.20193 z"
       id="path3827"
       inkscape:connector-curvature="0"
       style="fill:#1a1f22;stroke-width:0.80369997" />
  </g>
</svg>
